<?xml version="1.0" encoding="UTF-8"?>
<svg id="Capa_2" data-name="Capa 2" xmlns="http://www.w3.org/2000/svg" xmlns:xlink="http://www.w3.org/1999/xlink" viewBox="0 0 237.44 237.44">
  <defs>
    <style>
      .cls-1 {
        fill: #0f265c;
      }

      .cls-1, .cls-2 {
        fill-rule: evenodd;
      }

      .cls-2 {
        fill: #ffdc00;
      }

      .cls-3 {
        fill: #fff;
        stroke: #000;
        stroke-miterlimit: 10;
      }

      .cls-4 {
        mask: url(#mask-1);
      }

      .cls-5 {
        mask: url(#mask);
      }
    </style>
    <mask id="mask" x="57.26" y="176.83" width="21.87" height="28.72" maskUnits="userSpaceOnUse"/>
    <mask id="mask-1" x="54.3" y="31.89" width="128.84" height="130.33" maskUnits="userSpaceOnUse"/>
  </defs>
  <g id="Capa_1-2" data-name="Capa 1">
    <g id="pibank">
      <rect class="cls-3" x=".5" y=".5" width="236.44" height="236.44" rx="33.61" ry="33.61"/>
      <g>
        <g id="Group-16">
          <g class="cls-5">
            <path id="Fill-1" class="cls-1" d="M68.2,192.7c1.42,0,2.56-.45,3.45-1.36,.94-.9,1.38-2.14,1.38-3.66s-.45-2.75-1.38-3.66c-.89-.9-2.03-1.36-3.45-1.36s-2.56,.45-3.5,1.36c-.89,.9-1.34,2.14-1.34,3.66s.45,2.75,1.34,3.66c.93,.9,2.07,1.36,3.5,1.36m8.09-12.71c1.91,2.1,2.84,4.65,2.84,7.69s-.93,5.63-2.84,7.73c-1.91,2.1-4.19,3.13-6.87,3.13s-4.63-.82-6.06-2.51v6.41c0,1.72-1.38,3.11-3.07,3.11h-3.02v-28.15h6.1v1.93c1.42-1.69,3.45-2.51,6.06-2.51s4.96,1.07,6.87,3.17"/>
          </g>
          <polygon id="Fill-4" class="cls-1" points="81.47 197.97 87.56 197.97 87.56 177.41 81.47 177.41 81.47 197.97"/>
          <path id="Fill-5" class="cls-1" d="M101.85,192.7c1.42,0,2.56-.45,3.46-1.36,.94-.9,1.38-2.14,1.38-3.66s-.45-2.75-1.38-3.66c-.89-.9-2.03-1.36-3.46-1.36s-2.56,.45-3.5,1.36c-.89,.9-1.34,2.14-1.34,3.66s.45,2.75,1.34,3.66c.93,.9,2.07,1.36,3.5,1.36m8.09-12.71c1.91,2.1,2.85,4.65,2.85,7.69s-.94,5.63-2.85,7.73c-1.91,2.1-4.19,3.13-6.87,3.13s-4.63-.82-6.06-2.51v1.93h-6.1v-28.15h3.02c1.7,0,3.07,1.39,3.07,3.11v6.41c1.42-1.69,3.45-2.51,6.06-2.51s4.96,1.07,6.87,3.17"/>
          <path id="Fill-7" class="cls-1" d="M125.04,192.7c1.42,0,2.6-.45,3.5-1.36,.89-.9,1.34-2.14,1.34-3.66s-.45-2.75-1.34-3.66c-.89-.9-2.07-1.36-3.5-1.36s-2.6,.45-3.5,1.36c-.89,.9-1.34,2.14-1.34,3.66s.45,2.75,1.34,3.66c.89,.9,2.07,1.36,3.5,1.36h0Zm4.84-15.3h6.1v20.56h-6.1v-1.93c-1.42,1.69-3.46,2.51-6.06,2.51s-4.96-1.03-6.87-3.13c-1.91-2.1-2.85-4.69-2.85-7.73s.94-5.59,2.85-7.69c1.91-2.1,4.19-3.17,6.87-3.17s4.63,.82,6.06,2.51v-1.93Z"/>
          <path id="Fill-9" class="cls-1" d="M156.64,179.09c1.46,1.52,2.19,3.58,2.19,6.25v12.62h-6.1v-11.72c0-2.43-1.46-3.74-3.54-3.74-2.32,0-3.78,1.44-3.78,4.23v11.22h-6.1v-20.56h6.1v1.93c1.22-1.69,3.17-2.51,5.81-2.51,2.15,0,3.98,.74,5.41,2.26"/>
          <path id="Fill-11" class="cls-1" d="M180.99,197.97h-6.91l-6.5-9.09v9.09h-6.1v-28.15h3.02c1.7,0,3.07,1.39,3.07,3.11v13.49l6.1-9h7.11l-7.4,10.28,7.6,10.28Z"/>
        </g>
        <g id="Group-15">
          <g class="cls-4">
            <path id="Fill-13" class="cls-2" d="M118.33,31.89c36.7,0,64.81,28.43,64.81,65.55,0,29.51-19.23,54.66-47.38,62.39-42.47,11.67-81.46-21.1-81.46-62.39,0-37.12,28.89-65.56,64.03-65.56"/>
          </g>
        </g>
      </g>
    </g>
  </g>
</svg>