<?xml version="1.0" encoding="UTF-8"?>
<svg id="Capa_2" data-name="Capa 2" xmlns="http://www.w3.org/2000/svg" viewBox="0 0 204.52 238.64">
  <defs>
    <style>
      .cls-1 {
        fill: #fff;
      }
    </style>
  </defs>
  <g id="Capa_1-2" data-name="Capa 1">
    <g>
      <g>
        <path class="cls-1" d="M118.52,131.95c-7.55,0-15.13-1.56-22.2-4.84-18.31-8.52-30.27-27.1-31.22-48.48-.19-4.41,3.23-8.15,7.64-8.34,4.41-.16,8.15,3.23,8.34,7.64,.68,15.4,9.1,28.68,21.98,34.68,17.4,8.09,39.24,1.33,48.7-15.08,8.46-14.69,5.58-33.98-6.85-45.87-15.46-14.78-37.63-8.84-37.85-8.78-4.25,1.18-8.67-1.3-9.86-5.54-1.19-4.25,1.27-8.65,5.51-9.85,1.26-.36,31.18-8.5,53.26,12.62,17.69,16.92,21.75,44.43,9.66,65.42-9.64,16.72-28.25,26.45-47.11,26.45Z"/>
        <path class="cls-1" d="M119.06,238.64c-6.77,0-13.69-.47-20.47-1.41-11.16-1.55-19.23-2.66-28.84-7.07-5.65-2.59-33.95-16.82-36.12-42.36-.25-2.98-1.02-12.04,4.73-20.92,5.79-8.93,14.58-12.29,19.3-13.5l.97-.25H126.29c4.42,0,8,3.58,8,8s-3.58,8-8,8H60.75c-2.31,.72-6.4,2.49-8.96,6.45-2.77,4.28-2.38,8.9-2.21,10.86,1.48,17.34,25.82,28.7,26.86,29.18,7.47,3.43,13.83,4.31,24.36,5.77,9.65,1.34,19.59,1.62,28.77,.81,8.83-.77,17.95-1.57,28.82-6.09,9.5-3.94,20.26-8.41,25.95-19.26,1.76-3.36,7.12-14.87,2.1-21.91-2.11-2.96-5.5-4.45-8.24-5.21h-16.43c-4.42,0-8-3.58-8-8s3.58-8,8-8h18.35l.9,.21c7.93,1.86,14.31,5.91,18.44,11.7,10.03,14.07,2.67,31.7-.96,38.62-8.37,15.97-23.78,22.37-33.98,26.61-13.15,5.46-24.46,6.45-33.55,7.25-3.87,.34-7.86,.51-11.9,.51Z"/>
      </g>
      <path class="cls-1" d="M79.78,39.9c0,6.07-4.92,11-11,11h-17.89v17.89c0,6.07-4.92,11-11,11s-11-4.93-11-11v-17.89H11c-6.08,0-11-4.93-11-11s4.92-11,11-11H28.89V11c0-6.07,4.93-11,11-11s11,4.93,11,11V28.9h17.89c6.08,0,11,4.92,11,11Z"/>
    </g>
  </g>
</svg>
