<?xml version="1.0" encoding="UTF-8"?>
<svg id="Capa_2" data-name="Capa 2" xmlns="http://www.w3.org/2000/svg" viewBox="0 0 198.11 247.64">
  <defs>
    <style>
      .cls-1 {
        fill: #fff;
      }
    </style>
  </defs>
  <g id="Capa_1-2" data-name="Capa 1">
    <path class="cls-1" d="M74.29,0l-12.38,12.38H0v24.76H12.38V222.88c0,6.47,2.37,13.06,7.04,17.73s11.26,7.04,17.73,7.04h123.82c6.47,0,13.06-2.37,17.73-7.04s7.04-11.26,7.04-17.73V37.15h12.38V12.38h-61.91L123.82,0h-49.53ZM37.15,37.15h123.82V216.11c0,3.74-3.03,6.77-6.77,6.77H43.92c-3.74,0-6.77-3.03-6.77-6.77V37.15Zm24.76,37.15v111.44c0,6.84,5.54,12.38,12.38,12.38h0c6.84,0,12.38-5.54,12.38-12.38V74.29c0-6.84-5.54-12.38-12.38-12.38h0c-6.84,0-12.38,5.54-12.38,12.38Zm49.53,0v111.44c0,6.84,5.54,12.38,12.38,12.38h0c6.84,0,12.38-5.54,12.38-12.38V74.29c0-6.84-5.54-12.38-12.38-12.38h0c-6.84,0-12.38,5.54-12.38,12.38Z"/>
  </g>
</svg>