<?xml version="1.0" encoding="UTF-8"?>
<svg id="Capa_2" data-name="Capa 2" xmlns="http://www.w3.org/2000/svg" viewBox="0 0 171.92 186.28">
  <g id="Capa_1-2" data-name="Capa 1">
    <path d="M169.97,136.07c-4.97-8.56-12.36-32.79-12.36-64.43C157.61,32.08,125.54,0,85.97,0S14.32,32.08,14.32,71.65c0,31.65-7.4,55.87-12.37,64.43-3.99,6.84-1.68,15.61,5.16,19.6,2.19,1.28,4.68,1.95,7.21,1.95H50.87c3.96,19.38,22.89,31.89,42.27,27.93,14.06-2.87,25.05-13.86,27.93-27.93h36.55c7.91-.01,14.32-6.43,14.31-14.35,0-2.53-.68-5.01-1.95-7.2Zm-84.01,35.88c-9.11,0-17.22-5.74-20.26-14.33h40.52c-3.04,8.59-11.15,14.33-20.26,14.33ZM14.32,143.29c6.9-11.86,14.33-39.33,14.33-71.65S54.31,14.33,85.97,14.33s57.32,25.66,57.32,57.32,7.42,59.76,14.33,71.65H14.32Z"/>
  </g>
</svg>