<?xml version="1.0" encoding="UTF-8"?>
<svg id="Capa_2" data-name="Capa 2" xmlns="http://www.w3.org/2000/svg" viewBox="0 0 301.17 213.01">
  <g id="Capa_1-2" data-name="Capa 1">
    <g>
      <g>
        <path d="M150.55,106.32c-7.55,0-15.13-1.56-22.2-4.84-18.31-8.52-30.27-27.1-31.22-48.48-.19-4.41,3.23-8.15,7.64-8.34,4.41-.16,8.15,3.23,8.34,7.64,.68,15.4,9.1,28.68,21.98,34.68,17.4,8.09,39.24,1.33,48.7-15.08,8.46-14.69,5.58-33.98-6.85-45.87-15.46-14.78-37.63-8.84-37.85-8.78-4.25,1.18-8.67-1.3-9.86-5.54-1.19-4.25,1.27-8.65,5.51-9.85,1.26-.36,31.18-8.5,53.26,12.62,17.69,16.92,21.75,44.43,9.66,65.42-9.64,16.72-28.25,26.45-47.11,26.45Z"/>
        <path d="M151.1,213.01c-6.77,0-13.69-.47-20.47-1.41-11.16-1.55-19.23-2.66-28.84-7.07-5.65-2.59-33.95-16.82-36.12-42.36-.25-2.98-1.02-12.04,4.73-20.92,5.79-8.93,14.58-12.29,19.3-13.5l.97-.25h67.66c4.42,0,8,3.58,8,8s-3.58,8-8,8H92.78c-2.31,.72-6.4,2.49-8.96,6.45-2.77,4.28-2.38,8.9-2.21,10.86,1.48,17.34,25.82,28.7,26.86,29.18,7.47,3.43,13.83,4.31,24.36,5.77,9.65,1.34,19.59,1.62,28.77,.81,8.83-.77,17.95-1.57,28.82-6.09,9.5-3.94,20.26-8.41,25.95-19.26,1.76-3.36,7.12-14.87,2.1-21.91-2.11-2.96-5.5-4.45-8.24-5.21h-16.43c-4.42,0-8-3.58-8-8s3.58-8,8-8h18.35l.9,.21c7.93,1.86,14.31,5.91,18.44,11.7,10.03,14.07,2.67,31.7-.96,38.62-8.37,15.97-23.78,22.37-33.98,26.61-13.15,5.46-24.46,6.45-33.55,7.25-3.87,.34-7.86,.51-11.9,.51Z"/>
      </g>
      <g>
        <path d="M93.42,87.97c-.27,.55-.57,1.1-.88,1.64-6.67,11.57-19.47,18.77-33.39,18.77-5.55,0-10.85-1.16-15.76-3.44-12.98-6.05-21.46-19.19-22.13-34.3-.17-4.07,2.99-7.52,7.05-7.7h.29c3.97,0,7.23,3.1,7.4,7.05,.42,9.6,5.64,17.86,13.62,21.57,3.01,1.4,6.26,2.11,9.68,2.11,8.42,0,16.46-4.48,20.46-11.43,5.23-9.08,3.44-21.01-4.25-28.37-5.34-5.1-12.04-6.18-16.73-6.18-3.95,0-6.77,.75-6.8,.76-.64,.18-1.3,.27-1.97,.27-3.29,0-6.22-2.22-7.11-5.38-1.09-3.91,1.19-7.99,5.09-9.09,.48-.13,4.82-1.31,10.84-1.31,7.27,0,17.75,1.74,26.55,9.98-1.62,3.28-2.4,6.93-2.23,10.69,.56,12.52,4.17,24.29,10.27,34.36Z"/>
        <path d="M70.25,121.55c-4.04,2.85-8.06,6.69-11.43,11.81H20.65c-1.28,.44-3.36,1.42-4.65,3.41-1.5,2.31-1.28,4.83-1.18,6.05,.9,10.49,16.73,17.88,16.89,17.95,4.75,2.18,8.91,2.76,15.81,3.71,1.45,.2,2.9,.36,4.36,.49,.64,5.45,2.13,10.45,4.2,15.03-3.54-.12-7.09-.42-10.59-.9-7.67-1.07-13.21-1.83-19.93-4.92-3.98-1.82-23.88-11.85-25.43-30.11-.19-2.17-.75-8.77,3.49-15.31,4.25-6.58,10.69-9.04,14.15-9.92l.9-.23h45.71c2.4,0,4.54,1.16,5.87,2.94Z"/>
      </g>
      <g>
        <path d="M274.77,91.48c-6.68,11.58-19.47,18.77-33.39,18.77-5.55,0-10.85-1.15-15.76-3.44-7.67-3.57-13.76-9.61-17.6-17.08,.62-.94,1.21-1.9,1.77-2.87,3.41-5.91,5.8-12.24,7.21-18.74,.72,1.08,1.17,2.36,1.23,3.75,.42,9.59,5.64,17.86,13.61,21.57,3.02,1.4,6.27,2.11,9.69,2.11,8.42,0,16.46-4.49,20.46-11.43,5.23-9.08,3.44-21.01-4.26-28.38-5.33-5.1-12.04-6.17-16.72-6.17-3.95,0-6.77,.75-6.8,.76-.64,.17-1.3,.27-1.97,.27-3.3,0-6.22-2.22-7.11-5.39-1.09-3.9,1.19-7.98,5.09-9.08,.47-.14,4.82-1.31,10.84-1.31,7.36,0,18,1.78,26.87,10.27,12.54,11.99,15.42,31.5,6.84,46.39Z"/>
        <path d="M253.98,127.86c0,4.06-3.31,7.37-7.38,7.37h-1.57c-.65-1.12-1.36-2.24-2.15-3.34-3.28-4.6-7.43-8.44-12.32-11.41h16.04c4.07,0,7.38,3.31,7.38,7.38Z"/>
        <path d="M296.89,157.78c-5.96,11.37-16.71,15.84-23.83,18.79-9.13,3.8-16.9,4.47-23.14,5.02-1.75,.15-3.56,.26-5.4,.31,1.8-3.89,3.79-9.11,4.98-15.07,5.51-.5,11.23-1.11,17.9-3.88,6.07-2.52,12.94-5.37,16.43-12.02,.74-1.42,4.33-8.73,1.55-12.63-1.04-1.46-2.81-2.25-4.19-2.66h-10.76c-4.06,0-7.37-3.3-7.37-7.37s3.31-7.38,7.37-7.38h12.57l.83,.2c5.81,1.37,10.5,4.36,13.56,8.65,7.39,10.36,2.11,23.06-.5,28.04Z"/>
      </g>
    </g>
  </g>
</svg>