<?xml version="1.0" encoding="UTF-8"?>
<svg id="Capa_1" data-name="Capa 1" xmlns="http://www.w3.org/2000/svg" viewBox="0 0 3237.9 3237.13">
  <path d="M3200.92,1939.09c-33.2-33.27-82.05-45.48-126.99-31.75-739.16,223.46-1519.52-194.6-1742.98-933.76-79.76-263.84-79.76-545.38,0-809.22,20.64-67.03-16.97-138.1-84-158.74-24.35-7.5-50.39-7.5-74.74,0C837.43,108.18,543.52,313.71,332.31,592.97-216.25,1321.26-70.54,2356.36,657.76,2904.91c286.67,215.92,635.9,332.55,994.8,332.21,358.18,1.1,706.82-115.34,992.45-331.45,279.26-211.21,484.79-505.12,587.34-839.9,13.68-44.79,1.6-93.48-31.43-126.68Zm-708.62,763.71c-616.25,464.16-1492.1,340.86-1956.26-275.39-374.77-497.58-374.8-1183.17-.07-1680.78,131.98-174.29,302.6-315.57,498.45-412.73-11.16,78.3-16.78,157.28-16.83,236.37,.96,911.37,739.54,1649.95,1650.91,1650.91,79.25-.02,158.39-5.65,236.84-16.83-97.25,195.88-238.64,366.51-413.05,498.45Z"/>
</svg>
