<?xml version="1.0" encoding="UTF-8"?>
<svg id="Capa_2" data-name="Capa 2" xmlns="http://www.w3.org/2000/svg" viewBox="0 0 299.27 240.65">
  <defs>
    <style>
      .cls-1 {
        fill: #fff;
      }
    </style>
  </defs>
  <g id="Capa_1-2" data-name="Capa 1">
    <g>
      <polygon class="cls-1" points="138.7 202.49 95.8 202.46 95.61 159.63 218.41 36.84 261.38 79.81 138.7 202.49"/>
      <path class="cls-1" d="M249.08,11.55h38.64c6.11,0,11.07,4.96,11.07,11.07v25.46h-60.77V22.62c0-6.11,4.96-11.07,11.07-11.07Z" transform="translate(99.7 -181.05) rotate(45)"/>
      <path class="cls-1" d="M32.9,170.12c-2.29,9.92-.71,23.44,7.99,31.31,2.55,2.31,7.09,5.34,14.24,6.69,5.94,1.12,11.07,.28,14.33-.62,8.52-2.35,17.33,2.65,19.68,11.17s-2.64,17.33-11.16,19.68c-5.56,1.53-11.32,2.3-17.07,2.3-3.93,0-7.86-.36-11.71-1.08-11.45-2.17-21.75-7.15-29.78-14.41C-.17,207.44-2.36,180.55,1.72,162.91c2.69-11.59,9.97-28.23,29.43-41.66,17.09-11.8,33.94-12.81,42.99-13.35,7.91-.47,27.16-.31,49.92,9.28l-25.16,25.16c-10.57-2.73-18.82-2.75-22.85-2.5-6.76,.4-16.98,1.02-26.72,7.74-8.86,6.12-14.38,13.7-16.43,22.54Z"/>
      <path class="cls-1" d="M270.32,221.46c-22.88,15.65-47.84,10.58-54.95,8.65-15.31-4.14-23.22-12.02-38.97-27.73l-2.98-2.96c-3.09-3.07-6.03-6-8.85-8.79l22.63-22.63c2.78,2.77,5.71,5.67,8.78,8.73l3.01,2.99c14.27,14.22,17.9,17.65,24.75,19.51,2.68,.72,16.64,3.94,28.51-4.19,7.68-5.24,17.8-17.75,14.25-30.71-3.63-13.21-19.1-18.29-19.26-18.34-8.41-2.69-13.06-11.7-10.37-20.11,2.7-8.42,11.7-13.06,20.12-10.37,3.28,1.05,32.33,11.1,40.36,40.35,7.52,27.39-8.15,52.68-27.03,65.6Z"/>
    </g>
  </g>
</svg>