<?xml version="1.0" encoding="UTF-8"?>
<svg id="Capa_2" data-name="Capa 2" xmlns="http://www.w3.org/2000/svg" viewBox="0 0 152.51 142.22">
  <g id="Capa_1-2" data-name="Capa 1">
    <g>
      <path d="M145.48,54.76C138.07,23.4,109.85,0,76.27,0c-9.91,0-19.36,2.04-27.94,5.72H0V49.16H8.62c-2.25,6.92-3.47,14.29-3.47,21.95,0,39.21,31.9,71.11,71.11,71.11,29.69,0,55.2-18.29,65.82-44.19h10.43V54.76h-7.03ZM10.91,38.25V16.63H49.2v27.02l-.06,3.93c0,.2,0,.31-.31,.39-.3,.08-.35-.02-.45-.19l-5.37-9.54H10.91ZM82.01,107.25l-10.84,23.85c-30.82-2.59-55.1-28.5-55.1-59.98,0-7.74,1.47-15.15,4.14-21.95h13.44l4.51,16.39,26.19,10.84h6.67v-5.28l-11.51-4.06,.67-12.51h11.01l5.1-13.51,10.92-8v-5.59l-16.51-11.09-7.46-4.01c4.21-.94,8.57-1.43,13.05-1.43,1.94,0,3.85,.09,5.74,.27v4.83h11.01v-2.73c13.41,3.89,24.9,12.33,32.69,23.53v17.94h-32.64v16.42l-11.06,.24-5.74,4.98v5.76l-5.1,4.75v11.34l10.84,9.01Zm3.26,23.39l21.76-17.05,5.84-6.17,1.67-4.31,5.06-5.08h10.51c-8.61,17.16-25.18,29.65-44.84,32.61Zm56.34-43.52h-26.5l-11.12,10.89v-32.34h37.63v21.45Z"/>
      <rect x="71.17" y="60.21" width="10.84" height="5.34"/>
    </g>
  </g>
</svg>