<?xml version="1.0" encoding="UTF-8"?>
<svg id="Capa_2" data-name="Capa 2" xmlns="http://www.w3.org/2000/svg" viewBox="0 0 172.52 172.52">
  <g id="Capa_1-2" data-name="Capa 1">
    <path d="M86.26,0C38.62,0,0,38.62,0,86.26s38.62,86.26,86.26,86.26,86.26-38.62,86.26-86.26C172.47,38.64,133.88,.05,86.26,0Zm-21.87,119.44h43.74c-4.45,15.21-11.92,28.92-21.87,39.72-9.95-10.8-17.42-24.51-21.87-39.72Zm-3.01-13.27c-2.2-13.18-2.2-26.63,0-39.81h49.77c2.2,13.18,2.2,26.63,0,39.81H61.38ZM13.27,86.26c0-6.73,.92-13.43,2.76-19.91h31.9c-1.98,13.2-1.98,26.62,0,39.81H16.03c-1.84-6.48-2.77-13.18-2.76-19.91ZM108.13,53.08h-43.74c4.45-15.21,11.92-28.92,21.87-39.72,9.95,10.8,17.42,24.51,21.87,39.72Zm16.46,13.27h31.9c3.68,13.02,3.68,26.8,0,39.81h-31.9c1.98-13.2,1.98-26.62,0-39.81Zm26.67-13.27h-29.39c-3.39-13.32-9.07-25.96-16.8-37.32,19.97,5.37,36.75,18.92,46.19,37.32ZM67.45,15.76c-7.73,11.37-13.42,24-16.8,37.32H21.26c9.44-18.4,26.22-31.96,46.19-37.32ZM21.26,119.44h29.39c3.39,13.32,9.07,25.96,16.8,37.32-19.97-5.37-36.75-18.92-46.19-37.32Zm83.81,37.32c7.73-11.37,13.42-24,16.8-37.32h29.39c-9.44,18.4-26.22,31.96-46.19,37.32Z"/>
  </g>
</svg>