<?xml version="1.0" encoding="UTF-8"?>
<svg id="Capa_2" data-name="Capa 2" xmlns="http://www.w3.org/2000/svg" viewBox="0 0 224.11 223.89">
  <defs>
    <style>
      .cls-1 {
        fill: #fff;
      }
    </style>
  </defs>
  <g id="Capa_1-2" data-name="Capa 1">
    <g>
      <g>
        <polygon class="cls-1" points="127.32 148.43 128.22 128.02 148.61 127.05 204.5 182.94 183.16 204.27 127.32 148.43"/>
        <path class="cls-1" d="M199.43,197.89h18.23c3.3,0,5.97,2.68,5.97,5.97v14.88h-30.17v-14.88c0-3.3,2.68-5.97,5.97-5.97Z" transform="translate(503.31 208.16) rotate(135)"/>
      </g>
      <path class="cls-1" d="M149.12,0H21.9C9.8,0,0,9.8,0,21.89V170.02c0,12.1,9.8,21.9,21.9,21.9h118.85l-26.34-26.34c-5.22,3.57-11.53,5.66-18.33,5.66-17.97,0-32.53-14.56-32.53-32.52s14.56-32.52,32.53-32.52h51.63c6.53,0,12.8,2.59,17.42,7.21l26.79,26.76V43.03L149.12,0Zm-21.27,64.12H21.1V21.09H127.85v43.03Z"/>
    </g>
  </g>
</svg>