<?xml version="1.0" encoding="UTF-8"?>
<svg id="Capa_2" data-name="Capa 2" xmlns="http://www.w3.org/2000/svg" viewBox="0 0 179.16 179.16">
  <g id="Capa_1-2" data-name="Capa 1">
    <path d="M99.91,134.37c0,5.71-4.63,10.34-10.34,10.34s-10.34-4.63-10.34-10.34,4.63-10.34,10.34-10.34,10.34,4.63,10.34,10.34Zm-10.34-93.02c-19,0-34.45,13.91-34.45,31.01v3.45c0,3.81,3.09,6.89,6.89,6.89s6.89-3.09,6.89-6.89v-3.45c0-9.47,9.28-17.23,20.67-17.23s20.67,7.75,20.67,17.23-9.28,17.23-20.67,17.23c-3.81,0-6.89,3.09-6.89,6.89v6.89c0,3.81,3.09,6.89,6.89,6.89s6.89-3.09,6.89-6.89v-.62c15.71-2.89,27.56-15.42,27.56-30.39,0-17.1-15.45-31.01-34.45-31.01Zm89.58,48.23c0,49.47-40.11,89.58-89.58,89.58S0,139.05,0,89.58,40.11,0,89.58,0c49.45,.05,89.53,40.13,89.58,89.58Zm-13.78,0c0-41.86-33.94-75.8-75.8-75.8S13.78,47.72,13.78,89.58s33.94,75.8,75.8,75.8c41.84-.05,75.75-33.96,75.8-75.8Z"/>
  </g>
</svg>