<?xml version="1.0" encoding="UTF-8"?>
<svg id="Capa_2" data-name="Capa 2" xmlns="http://www.w3.org/2000/svg" viewBox="0 0 750 806.79">
  <defs>
    <style>
      .cls-1 {
        fill: #fff;
      }
    </style>
  </defs>
  <g id="Capa_1-2" data-name="Capa 1">
    <g>
      <path class="cls-1" d="M677.08,806.79h-72.92c-17.26,0-31.25-13.99-31.25-31.25s13.99-31.25,31.25-31.25h72.92c5.65,0,10.42-4.77,10.42-10.42V356.79c0-29.39-13.14-56.58-35.15-72.72-.28-.21-.56-.42-.84-.64L374.98,65.87l-89.06,69.7c-13.59,10.64-33.23,8.24-43.87-5.35-10.64-13.59-8.24-33.23,5.35-43.87L342.15,12.2c17.39-15.72,43.95-16.37,64.1-1.25,.19,.15,.38,.29,.57,.44l282.96,222.62c37.72,27.9,60.22,73.75,60.22,122.77v377.08c0,40.21-32.71,72.92-72.92,72.92Z"/>
      <path class="cls-1" d="M521.75,483.87v291.66c0,17.26-13.99,31.25-31.25,31.25-.15,0-.31,0-.46-.01-.15,.01-.31,.01-.46,.01H72.92c-40.21,0-72.92-32.71-72.92-72.91V356.78c0-46.48,22.88-93.37,59.73-122.39l74.83-60.28c13.44-10.82,33.11-8.7,43.94,4.74s8.71,33.11-4.73,43.94l-75,60.41c-.1,.08-.2,.16-.3,.24-21.85,17.17-35.97,45.96-35.97,73.34v377.09c0,5.64,4.77,10.41,10.42,10.41H459.25v-250h-164.58v160.42c0,17.26-14,31.25-31.25,31.25s-31.25-13.99-31.25-31.25v-170.83c0-29.7,22.39-52.09,52.08-52.09h185.42c29.69,0,52.08,22.39,52.08,52.09Z"/>
    </g>
  </g>
</svg>