<?xml version="1.0" encoding="UTF-8"?>
<svg id="Capa_2" data-name="Capa 2" xmlns="http://www.w3.org/2000/svg" xmlns:xlink="http://www.w3.org/1999/xlink" viewBox="0 0 994.32 858.54">
  <defs>
    <style>
      .cls-1 {
        fill: url(#Degradado_sin_nombre_10-3);
      }

      .cls-2 {
        fill: url(#Degradado_sin_nombre_11);
      }

      .cls-2, .cls-3, .cls-4, .cls-5 {
        isolation: isolate;
      }

      .cls-2, .cls-5 {
        opacity: .51;
      }

      .cls-6 {
        clip-path: url(#clippath-1);
      }

      .cls-7 {
        fill: url(#Degradado_sin_nombre_10);
      }

      .cls-3 {
        fill: url(#Degradado_sin_nombre_10-4);
      }

      .cls-3, .cls-4 {
        opacity: .8;
      }

      .cls-4 {
        fill: url(#Degradado_sin_nombre_10-2);
      }

      .cls-8 {
        clip-path: url(#clippath);
      }

      .cls-5 {
        fill: url(#Degradado_sin_nombre_11-2);
      }

      .cls-9 {
        fill: none;
      }
    </style>
    <clipPath id="clippath">
      <path class="cls-9" d="M621.55,0C415.69,0,248.78,166.91,248.78,372.77s166.91,372.77,372.77,372.77,372.77-166.91,372.77-372.77S827.41,0,621.55,0Zm0,559.16c-102.91,0-186.39-83.47-186.39-186.39s83.47-186.39,186.39-186.39,186.39,83.47,186.39,186.39-83.47,186.39-186.39,186.39Z"/>
    </clipPath>
    <linearGradient id="Degradado_sin_nombre_10" data-name="Degradado sin nombre 10" x1="-2499.78" y1="-375.51" x2="-1549.42" y2="-375.51" gradientTransform="translate(-27.92 -1643.79) rotate(-89.56) scale(1 -1.08)" gradientUnits="userSpaceOnUse">
      <stop offset="0" stop-color="#00eaf7"/>
      <stop offset=".06" stop-color="#0cceef"/>
      <stop offset=".16" stop-color="#1ea6e3"/>
      <stop offset=".27" stop-color="#2d83d9"/>
      <stop offset=".38" stop-color="#3a67d0"/>
      <stop offset=".5" stop-color="#4351ca"/>
      <stop offset=".63" stop-color="#4a42c5"/>
      <stop offset=".78" stop-color="#4e39c3"/>
      <stop offset="1" stop-color="#4f36c2"/>
    </linearGradient>
    <linearGradient id="Degradado_sin_nombre_10-2" data-name="Degradado sin nombre 10" x1="-2515.78" y1="-532.61" x2="-1493.48" y2="-532.61" gradientTransform="translate(-1312.43 -724.55) rotate(-134.56) scale(1 -1.08)" xlink:href="#Degradado_sin_nombre_10"/>
    <linearGradient id="Degradado_sin_nombre_11" data-name="Degradado sin nombre 11" x1="-2191.08" y1="-804.27" x2="-1233.64" y2="-804.27" gradientTransform="translate(-1078.54 -854.26) rotate(-117.39) scale(1 -1)" gradientUnits="userSpaceOnUse">
      <stop offset="0" stop-color="#00eaf7"/>
      <stop offset=".07" stop-color="#09d5f1"/>
      <stop offset=".23" stop-color="#1ea5e3"/>
      <stop offset=".4" stop-color="#307dd7"/>
      <stop offset=".56" stop-color="#3d5ece"/>
      <stop offset=".71" stop-color="#4748c7"/>
      <stop offset=".86" stop-color="#4d3bc3"/>
      <stop offset="1" stop-color="#4f36c2"/>
    </linearGradient>
    <clipPath id="clippath-1">
      <path class="cls-9" d="M598.81,782.21c-62.72,47.9-141.05,76.32-226.04,76.32C166.91,858.54,0,691.68,0,485.77,0,305.3,128.23,154.79,298.59,120.36c-54.52,69.66-87.09,157.31-87.09,252.41,0,218.44,171.75,397.56,387.31,409.44Z"/>
    </clipPath>
    <linearGradient id="Degradado_sin_nombre_10-3" data-name="Degradado sin nombre 10" x1="-2673.83" y1="-489.97" x2="-1613" y2="-489.97" xlink:href="#Degradado_sin_nombre_10"/>
    <linearGradient id="Degradado_sin_nombre_10-4" data-name="Degradado sin nombre 10" x1="-2751.35" y1="-553.12" x2="-1610.23" y2="-553.12" gradientTransform="translate(-1312.43 -724.55) rotate(-134.56) scale(1 -1.08)" xlink:href="#Degradado_sin_nombre_10"/>
    <linearGradient id="Degradado_sin_nombre_11-2" data-name="Degradado sin nombre 11" x1="-2403.78" y1="-869.25" x2="-1335.06" y2="-869.25" xlink:href="#Degradado_sin_nombre_11"/>
  </defs>
  <g id="Capa_1-2" data-name="Capa 1">
    <g id="Logo">
      <g class="cls-8">
        <g>
          <path class="cls-7" d="M-63.61,583.85s336.98,654.29,753.8-56.74C1107.02-183.92,596.97-159.92,259.68,10.98-83.42,184.81-198.89,291.15-63.61,583.85Z"/>
          <path class="cls-4" d="M869.75,657.42S1428.16,64.56,562.97-8.01C-302.22-80.59-109.38,375.91,176.81,610.42c291.11,238.55,438.03,298.05,692.94,47Z"/>
          <path class="cls-2" d="M491.95,743.02s708.98-59.24,227.52-629.6C238.01-456.93,71.2-35.64,99.41,293.65c28.69,334.95,81.09,463.33,392.54,449.37Z"/>
        </g>
        <path class="cls-9" d="M621.55,0C415.69,0,248.78,166.91,248.78,372.77s166.91,372.77,372.77,372.77,372.77-166.91,372.77-372.77S827.41,0,621.55,0Zm0,559.16c-102.91,0-186.39-83.47-186.39-186.39s83.47-186.39,186.39-186.39,186.39,83.47,186.39,186.39-83.47,186.39-186.39,186.39Z"/>
      </g>
      <g class="cls-6">
        <g>
          <path class="cls-1" d="M9.74,726.85s376.15,730.34,841.41-63.33C1316.43-130.16,747.11-103.37,370.61,87.4-12.37,281.44-141.26,400.14,9.74,726.85Z"/>
          <path class="cls-3" d="M1051.58,808.97S1674.9,147.2,709.15,66.2C-256.6-14.81-41.35,494.74,278.11,756.51c324.94,266.27,488.95,332.69,773.48,52.46Z"/>
          <path class="cls-5" d="M629.87,904.52s791.38-66.13,253.96-702.78C346.42-434.9,160.22,35.36,191.71,402.92c32.03,373.89,90.52,517.18,438.16,501.6Z"/>
        </g>
        <path class="cls-9" d="M598.81,782.21c-62.72,47.9-141.05,76.32-226.04,76.32C166.91,858.54,0,691.68,0,485.77,0,305.3,128.23,154.79,298.59,120.36c-54.52,69.66-87.09,157.31-87.09,252.41,0,218.44,171.75,397.56,387.31,409.44Z"/>
      </g>
    </g>
  </g>
</svg>