<?xml version="1.0" encoding="UTF-8"?>
<svg id="Capa_2" data-name="Capa 2" xmlns="http://www.w3.org/2000/svg" viewBox="0 0 163.85 157.57">
  <g id="Capa_1-2" data-name="Capa 1">
    <path d="M162.92,147.98c-11.99-20.72-30.46-35.58-52.01-42.62,26.89-16.01,35.71-50.78,19.7-77.67C114.61,.8,79.83-8.02,52.94,7.98,26.05,23.99,17.23,58.77,33.24,85.66c4.83,8.11,11.6,14.88,19.7,19.7C31.39,112.4,12.92,127.25,.93,147.98c-1.82,2.96-.89,6.84,2.08,8.66,2.96,1.82,6.84,.89,8.66-2.08,.06-.09,.11-.19,.17-.29,14.83-25.62,41.03-40.92,70.1-40.92s55.27,15.3,70.1,40.92c1.66,3.06,5.48,4.19,8.54,2.53,3.06-1.66,4.19-5.48,2.53-8.54-.05-.1-.11-.19-.17-.29ZM37.85,56.69c0-24.34,19.73-44.07,44.07-44.07s44.07,19.73,44.07,44.07-19.73,44.07-44.07,44.07c-24.33-.03-44.04-19.74-44.07-44.07Z"/>
  </g>
</svg>