<?xml version="1.0" encoding="UTF-8"?>
<svg id="Capa_2" data-name="Capa 2" xmlns="http://www.w3.org/2000/svg" viewBox="0 0 208.44 219.62">
  <defs>
    <style>
      .cls-1 {
        fill: #fff;
      }
    </style>
  </defs>
  <g id="Capa_1-2" data-name="Capa 1">
    <g>
      <g>
        <path class="cls-1" d="M171.7,8.5V107.86c-6.09,.71-11.87,2.73-17,5.91V21.11l-13.38,5.42c-2.01,.82-4.25,.83-6.27,.05l-22.92-8.9-23.83,9.21c-1.99,.77-4.2,.76-6.19-.03l-23.16-9.15-23.77,9.45c-2.15,.86-4.56,.8-6.68-.16l-11.5-5.27V175.07c0,6.37,5.18,11.56,11.56,11.56h63.25c.92,6.09,2.93,11.83,5.84,17H28.56c-15.75,0-28.56-12.81-28.56-28.56V8.5C0,5.61,1.47,2.91,3.9,1.35,6.34-.21,9.4-.43,12.03,.77l20.24,9.26L55.8,.67c2.01-.8,4.26-.81,6.27-.01l23.2,9.17L109.08,.64c1.97-.77,4.16-.76,6.14,0l22.84,8.87L160.01,.62c2.62-1.06,5.6-.75,7.94,.83,2.34,1.58,3.75,4.22,3.75,7.05Z"/>
        <g>
          <path class="cls-1" d="M130.79,80.96H40.29c-4.69,0-8.5-3.81-8.5-8.5s3.81-8.5,8.5-8.5h90.5c4.69,0,8.5,3.81,8.5,8.5s-3.81,8.5-8.5,8.5Z"/>
          <path class="cls-1" d="M82.18,129.58H40.29c-4.69,0-8.5-3.81-8.5-8.5s3.81-8.5,8.5-8.5h41.88c4.69,0,8.5,3.81,8.5,8.5s-3.81,8.5-8.5,8.5Z"/>
          <path class="cls-1" d="M130.79,129.58h-16.2c-4.69,0-8.5-3.81-8.5-8.5s3.81-8.5,8.5-8.5h16.2c4.69,0,8.5,3.81,8.5,8.5s-3.81,8.5-8.5,8.5Z"/>
          <path class="cls-1" d="M104.77,144.68c-4.53,4.87-8.12,10.64-10.45,17H40.29c-4.69,0-8.5-3.81-8.5-8.5s3.81-8.5,8.5-8.5H104.77Z"/>
        </g>
      </g>
      <g>
        <path class="cls-1" d="M208.44,149.29c0,11.94-6.58,22.35-16.3,27.79-.89-23.55-18.01-43.02-40.47-47.53,5.82-7.36,14.83-12.08,24.95-12.08,17.57,0,31.82,14.25,31.82,31.82Z"/>
        <circle class="cls-1" cx="141.71" cy="179.04" r="40.58"/>
      </g>
    </g>
  </g>
</svg>