<?xml version="1.0" encoding="UTF-8"?>
<svg id="Capa_2" data-name="Capa 2" xmlns="http://www.w3.org/2000/svg" viewBox="0 0 241.39 264.93">
  <defs>
    <style>
      .cls-1 {
        fill: #fff;
      }
    </style>
  </defs>
  <g id="Capa_1-2" data-name="Capa 1">
    <g>
      <g>
        <g>
          <path class="cls-1" d="M199.48,39.82V126.07h-.1c-7.7,0-15.08,1.39-21.9,3.93V50.82H98.86c1.24-3.41,1.92-7.09,1.92-10.92s-.7-7.63-1.98-11.08h89.68c6.07,0,11,4.93,11,11Z"/>
          <path class="cls-1" d="M97.19,243.74H39.59c-6.08,0-11-4.93-11-11V98.73c3.52,1.33,7.32,2.06,11.3,2.06,3.75,0,7.35-.65,10.7-1.84v122.79h41.18c.6,7.75,2.47,15.16,5.42,22Z"/>
        </g>
        <path class="cls-1" d="M208.81,206.72c-2.76-13.74-11.33-25.41-23.04-32.3-6.67-3.94-14.37-6.33-22.58-6.66-.67-.04-1.35-.05-2.03-.05-26.8,0-48.6,21.81-48.6,48.61s21.8,48.61,48.6,48.61c21.97,0,40.57-14.64,46.57-34.67,1.33-4.41,2.04-9.1,2.04-13.94,0-3.29-.33-6.5-.96-9.6Zm-47.65,36.21c-14.67,0-26.6-11.93-26.6-26.61,0-13.39,9.94-24.5,22.82-26.33,1.24-.19,2.5-.28,3.78-.28,14.68,0,26.61,11.94,26.61,26.61,0,4.38-1.06,8.52-2.95,12.17-4.42,8.57-13.36,14.44-23.66,14.44Z"/>
        <path class="cls-1" d="M241.39,189.08c0,20.3-14.48,37.29-33.66,41.18,1.33-4.41,2.04-9.1,2.04-13.94,0-3.29-.33-6.5-.96-9.6,6.3-3.37,10.58-10.02,10.58-17.64,0-11.04-8.97-20.01-20.01-20.01-5.26,0-10.04,2.03-13.61,5.35-6.67-3.94-14.37-6.33-22.58-6.66,7.32-12.38,20.8-20.69,36.19-20.69,23.17,0,42.01,18.84,42.01,42.01Z"/>
      </g>
      <g>
        <path class="cls-1" d="M109.41,169.83c-4.01,4.45-7.45,9.42-10.2,14.79-1.42-.82-2.83-1.82-4.17-3.02-9.52-8.54-9.33-22.01-9.17-25.56,6.88-.04,13.75-.08,20.63-.12-.27,2.43-.56,8.28,2.91,13.91Z"/>
        <path class="cls-1" d="M147.26,148.1c-7.91,1.61-15.34,4.57-22.04,8.63-1.13-3.93-4.71-6.81-9.66-10.78-8.4-6.75-11.49-4.9-17.08-10.44-6.22-6.15-7.82-13.8-8.3-16.26,0,0-2.34-10.52,2.79-21.11,1.28-2.63,3.16-5.43,3.16-5.43,1.2-1.6,3.27-3.95,6.48-5.92,4.32-2.67,8.48-3.26,10.67-3.41,.03-5.18,.06-10.35,.1-15.53h10.6c.06,5.36,.12,10.72,.18,16.07,3.12,.63,7.4,1.99,11.46,5.16,12.12,9.45,11.04,26.14,10.9,27.98-6.69,.03-13.38,.07-20.07,.11,.02-.77,.17-11.4-4-15.4-.62-.61-1.82-1.76-3.68-2.03-1.95-.28-3.5,.57-4.13,.92-2.05,1.16-2.98,2.96-3.55,4.13-1.37,2.77-1.31,5.33-1.26,6.88,.03,1,.23,4.24,2.03,7.72,2.6,5.01,6.96,7.44,10.69,9.47,8.1,4.4,10.03,2.25,15.33,6.09,5.04,3.65,7.38,8.5,8.57,11.16,.29,.65,.56,1.31,.81,1.99Z"/>
      </g>
      <path class="cls-1" d="M79.78,39.9c0,6.07-4.92,11-11,11h-17.89v17.89c0,6.07-4.92,11-11,11s-11-4.93-11-11v-17.89H11c-6.08,0-11-4.93-11-11s4.92-11,11-11H28.89V11c0-6.07,4.93-11,11-11s11,4.93,11,11V28.9h17.89c6.08,0,11,4.92,11,11Z"/>
    </g>
  </g>
</svg>