<?xml version="1.0" encoding="UTF-8"?>
<svg id="Capa_1" data-name="Capa 1" xmlns="http://www.w3.org/2000/svg" viewBox="0 0 2741.4 2741.4">
  <path d="M1972.49,979.79c41.2,41.15,41.24,107.91,.08,149.11-.03,.03-.06,.06-.08,.08l-738.07,738.07c-41.15,41.2-107.91,41.24-149.11,.08-.03-.03-.06-.06-.08-.08l-316.32-316.32c-41.2-41.2-41.2-108,0-149.2,41.2-41.2,108-41.2,149.2,0l241.72,241.85,663.47-663.6c41.15-41.2,107.91-41.24,149.11-.08,.03,.03,.06,.06,.08,.08Zm768.91,390.91c0,757.02-613.68,1370.7-1370.7,1370.7S0,2127.72,0,1370.7,613.68,0,1370.7,0c756.69,.8,1369.9,614.02,1370.7,1370.7Zm-210.88,0c0-640.55-519.27-1159.82-1159.82-1159.82S210.88,730.15,210.88,1370.7s519.27,1159.82,1159.82,1159.82c640.25-.73,1159.1-519.57,1159.82-1159.82Z"/>
</svg>
