<?xml version="1.0" encoding="UTF-8"?>
<svg id="Capa_2" data-name="Capa 2" xmlns="http://www.w3.org/2000/svg" viewBox="0 0 170.44 170.44">
  <g id="Capa_1-2" data-name="Capa 1">
    <path d="M162.24,114.59l-40.15-17.99-.11-.05c-4.23-1.81-9.1-1.36-12.93,1.19-.22,.15-.44,.31-.64,.48l-20.74,17.68c-13.14-6.38-26.71-19.85-33.09-32.82l17.71-21.06c.17-.21,.33-.43,.49-.66,2.5-3.82,2.92-8.64,1.12-12.83v-.1L55.85,8.21C53.45,2.67,47.69-.63,41.69,.1,17.8,3.24-.04,23.63,0,47.72,0,115.39,55.05,170.44,122.72,170.44c24.09,.04,44.48-17.8,47.62-41.69,.73-6-2.56-11.76-8.1-14.16Zm-39.52,42.22c-60.22-.07-109.02-48.87-109.08-109.08-.07-17.22,12.65-31.81,29.72-34.09,0,.03,0,.07,0,.1l17.9,40.05-17.62,21.08c-.18,.21-.34,.43-.49,.66-2.61,4-2.93,9.08-.85,13.38,7.72,15.79,23.63,31.58,39.59,39.3,4.33,2.06,9.43,1.69,13.42-.97,.22-.15,.43-.31,.63-.48l20.72-17.67,40.05,17.94h.09c-2.25,17.09-16.85,29.84-34.09,29.78Z"/>
  </g>
</svg>