<?xml version="1.0" encoding="UTF-8"?>
<svg id="Capa_2" data-name="Capa 2" xmlns="http://www.w3.org/2000/svg" viewBox="0 0 209.19 230.8">
  <g id="Capa_1-2" data-name="Capa 1">
    <g>
      <path d="M206.12,212.88l-12.11-12.11c5.8-8.52,9.19-18.81,9.19-29.87,0-29.39-23.91-53.3-53.3-53.3s-53.3,23.91-53.3,53.3,23.91,53.3,53.3,53.3c10.75,0,20.76-3.2,29.14-8.7l12.23,12.23c2.05,2.05,4.74,3.07,7.43,3.07s5.37-1.02,7.42-3.07c4.1-4.1,4.1-10.75,0-14.85Zm-88.52-41.98c0-17.81,14.49-32.3,32.3-32.3s32.3,14.49,32.3,32.3-14.49,32.3-32.3,32.3-32.3-14.49-32.3-32.3Z"/>
      <path d="M171.91,70.32v29.61c-6.96-2.16-14.35-3.33-22-3.33v-11.3h-53.21c-6.07,0-11-4.93-11-11V22H22V192h56.66c2.36,7.97,6.03,15.39,10.76,22H11c-6.08,0-11-4.92-11-11V11C0,4.93,4.92,0,11,0H101.9c2.93,0,5.74,1.17,7.8,3.24l59.01,59.32c2.05,2.06,3.2,4.85,3.2,7.76Z"/>
    </g>
  </g>
</svg>