<?xml version="1.0" encoding="UTF-8"?>
<svg id="Capa_2" data-name="Capa 2" xmlns="http://www.w3.org/2000/svg" viewBox="0 0 802.09 829.17">
  <defs>
    <style>
      .cls-1 {
        fill: #fff;
      }
    </style>
  </defs>
  <g id="Capa_1-2" data-name="Capa 1">
    <path class="cls-1" d="M400,583.33c-91.9,0-166.67-74.77-166.67-166.67s74.77-166.67,166.67-166.67,166.67,74.77,166.67,166.67-74.77,166.67-166.67,166.67Zm0-270.83c-57.44,0-104.17,46.73-104.17,104.17s46.73,104.17,104.17,104.17,104.17-46.73,104.17-104.17-46.73-104.17-104.17-104.17Z"/>
    <path class="cls-1" d="M683.33,712.5c-4.28,0-8.6-.88-12.68-2.69l-56.25-25c-.13-.06-.27-.12-.4-.18-17.3-7.98-40.03-6.86-56.58,2.79-14.91,8.7-34.04,3.66-42.74-11.25-8.7-14.91-3.66-34.04,11.25-42.74,34.33-20.03,78.01-22.19,114.04-5.65l35.24,15.66c25.58-30.59,45.59-65.27,58.86-102.03l-30.96-21.93c-31.95-21.51-51.01-59.13-51.01-100.73,0-39.25,19.3-77.68,50.37-100.27,.11-.08,.21-.15,.32-.23l31.27-22.15c-12.93-35.59-32.47-69.2-59.22-101.87l-34.86,15.5c-35.54,16.32-76.75,14.45-113.11-5.13-35.75-19.25-58.91-54.78-62.12-95.17l-5.34-41.38c-21.69-3.72-41.27-5.55-59.4-5.55-25.02,0-53.6,3.42-80.47,9.62-16.82,3.89-33.6-6.61-37.48-23.42-3.88-16.82,6.61-33.6,23.42-37.48C336.82,3.98,370.39,0,400,0s59.16,3.63,94.05,11.11c12.95,2.78,22.75,13.42,24.45,26.56l8.33,64.58c.08,.59,.13,1.18,.18,1.77,1.38,19.32,12.4,36.35,29.48,45.54,18.97,10.22,39.93,11.42,57.51,3.31,.13-.06,.27-.12,.4-.18l56.25-25c12.34-5.48,26.81-2.42,35.87,7.59,46.6,51.51,77.47,105.3,94.37,164.46,3.64,12.75-1.16,26.42-11.98,34.09l-49.83,35.3c-14.65,10.74-24.48,30.65-24.48,49.62,0,20.84,8.82,39.15,23.58,49,.25,.16,.49,.33,.73,.5l50,35.42c10.82,7.67,15.63,21.33,11.98,34.09-17.41,60.94-50.22,118-94.89,165.02-6.03,6.35-14.27,9.73-22.66,9.73Z"/>
    <path class="cls-1" d="M400,829.17c-28.4,0-59.16-3.63-94.05-11.11-13.24-2.84-23.14-13.87-24.54-27.34l-6.25-60.42c-.03-.33-.06-.66-.09-.99-1.38-19.32-12.4-36.35-29.48-45.54-18.97-10.21-39.93-11.42-57.51-3.31-.13,.06-.27,.12-.4,.18l-56.25,25c-12.34,5.48-26.8,2.42-35.86-7.59-46.6-51.51-77.47-105.3-94.38-164.46-3.64-12.75,1.16-26.42,11.98-34.09l49.85-35.31c14.64-10.74,24.46-30.65,24.46-49.61,0-20.84-8.82-39.15-23.58-49-.24-.16-.49-.33-.73-.5l-50-35.42c-10.82-7.67-15.63-21.33-11.99-34.09,17.41-60.94,50.22-118,94.89-165.02,9.11-9.59,23.26-12.4,35.35-7.03l56.25,25c.13,.06,.27,.12,.4,.18,17.3,7.98,40.03,6.86,56.58-2.79,14.91-8.7,34.04-3.66,42.74,11.25,8.7,14.91,3.66,34.04-11.25,42.74-34.33,20.03-78.01,22.19-114.04,5.65l-35.24-15.66c-25.58,30.59-45.59,65.27-58.86,102.03l30.96,21.93c31.95,21.51,51.02,59.13,51.02,100.73,0,39.26-19.3,77.68-50.37,100.27-.11,.08-.21,.15-.32,.23l-31.27,22.15c12.93,35.59,32.47,69.2,59.22,101.87l34.86-15.5c35.54-16.32,76.75-14.45,113.1,5.13,35.87,19.31,59.07,55.02,62.15,95.59l3.82,36.9c21.46,3.66,40.84,5.45,58.8,5.45,25.02,0,53.6-3.42,80.47-9.62,16.81-3.88,33.6,6.61,37.48,23.42,3.88,16.82-6.61,33.6-23.42,37.48-31.34,7.23-64.92,11.22-94.53,11.22Z"/>
  </g>
</svg>