<?xml version="1.0" encoding="UTF-8"?>
<svg id="Capa_2" data-name="Capa 2" xmlns="http://www.w3.org/2000/svg" viewBox="0 0 172.12 179.29">
  <g id="Capa_1-2" data-name="Capa 1">
    <path d="M157.78,0H14.34C6.42,0,0,6.42,0,14.34v52.7c0,80.33,67.97,106.99,81.58,111.51,2.91,.99,6.06,.99,8.96,0,13.63-4.53,81.58-31.18,81.58-111.51V14.34c0-7.92-6.42-14.34-14.34-14.34Zm0,67.05c0,70.3-59.48,93.79-71.72,97.88-12.13-4.04-71.72-27.51-71.72-97.88V14.34H157.78v52.7Zm-112.65,24.09c-2.8-2.8-2.8-7.35,0-10.15,2.8-2.8,7.35-2.8,10.15,0l16.44,16.44,45.13-45.13c2.8-2.8,7.35-2.8,10.15,0,2.8,2.8,2.8,7.35,0,10.15h0l-50.2,50.2c-2.8,2.8-7.34,2.8-10.14,0,0,0,0,0,0,0l-21.52-21.52Z"/>
  </g>
</svg>