<?xml version="1.0" encoding="UTF-8"?>
<svg id="Capa_2" data-name="Capa 2" xmlns="http://www.w3.org/2000/svg" viewBox="0 0 259.92 246.2">
  <defs>
    <style>
      .cls-1 {
        fill: #fff;
      }
    </style>
  </defs>
  <g id="Capa_1-2" data-name="Capa 1">
    <g>
      <circle class="cls-1" cx="104.81" cy="221.82" r="24.38"/>
      <circle class="cls-1" cx="193.78" cy="221.82" r="24.38" transform="translate(-100.32 238.05) rotate(-52.02)"/>
      <path class="cls-1" d="M107.33,188.29c-.25,0-.51,0-.76-.02-6.29-.32-18.47-2.31-29.39-12.04-11.2-9.97-14.51-22.14-15.49-28.72-8.25-45.44-16.31-85.18-20.53-101.28-.49-1.85-1.3-4.96-3.66-7.94-4.48-5.65-11.87-7.9-13.56-8.18-.74-.08-1.93-.04-3.19-.01-2.06,.05-4.62,.12-7.45-.2C5.07,28.96-.84,21.53,.1,13.3,1.04,5.06,8.48-.84,16.71,.1c.74,.08,1.96,.05,3.26,.02,2.06-.05,4.61-.12,7.44,.2,6.95,.79,22.9,5.86,33.59,19.34,6.28,7.91,8.38,15.94,9.18,18.97,4.48,17.07,12.55,56.84,21.08,103.79,.03,.19,.07,.38,.09,.58,.28,1.95,1.39,6.92,5.79,10.83,3.99,3.55,8.54,4.31,10.63,4.46l81.76-.28c4.08-5.12,7.86-10.41,11.27-15.78,4.31-6.78,6.81-11.72,12.29-22.55,2.04-4.03,4.46-8.8,7.48-14.69,3.66-7.12,7.39-14.27,11.09-21.26,3.88-7.32,12.95-10.11,20.28-6.24,7.32,3.88,10.11,12.96,6.24,20.28-3.64,6.88-7.32,13.92-10.92,20.93-2.99,5.82-5.38,10.54-7.4,14.52-5.57,11.01-8.65,17.08-13.74,25.1-5.34,8.41-11.43,16.62-18.11,24.42-2.84,3.32-6.98,5.23-11.34,5.25l-89.28,.31h-.05Z"/>
      <path class="cls-1" d="M132.64,16.76c.04-.79,.49-1.5,1.18-1.88,2.88-1.61,8.23-4.02,15.29-4.09,6.75-.07,11.95,2.02,14.85,3.5,.72,.37,1.2,1.09,1.25,1.9,.99,14.66,1.98,29.32,2.97,43.97,7.48-.02,14.97-.04,22.45-.05,4.27-.01,6.82,4.76,4.43,8.29-5.27,7.78-11.48,16.08-18.78,24.59-8.05,9.39-16.04,17.43-23.51,24.24-2.06,1.88-5.22,1.84-7.24-.09-7.26-6.94-14.85-14.8-22.51-23.65-7.4-8.55-13.91-16.91-19.62-24.87-2.51-3.5-.06-8.37,4.24-8.43,7.52-.1,15.03-.2,22.55-.31,.82-14.37,1.63-28.74,2.45-43.12Z"/>
    </g>
  </g>
</svg>