<?xml version="1.0" encoding="UTF-8"?>
<svg id="Capa_2" data-name="Capa 2" xmlns="http://www.w3.org/2000/svg" viewBox="0 0 181.9 213.8">
  <defs>
    <style>
      .cls-1 {
        fill: #fff;
      }
    </style>
  </defs>
  <g id="Capa_1-2" data-name="Capa 1">
    <g>
      <path class="cls-1" d="M157.9,213.8H13.5c-7.46,0-13.5-6.04-13.5-13.5V13.5C0,6.04,6.04,0,13.5,0H157.9c7.46,0,13.5,6.04,13.5,13.5v27.15c0,7.46-6.04,13.5-13.5,13.5s-13.5-6.04-13.5-13.5v-13.65H27V186.8h117.4v-13.1c0-7.46,6.04-13.5,13.5-13.5s13.5,6.04,13.5,13.5v26.6c0,7.46-6.04,13.5-13.5,13.5Z"/>
      <path class="cls-1" d="M178.14,116.25l-31.36,32.68c-2.65,2.77-6.2,4.16-9.75,4.16-3.36,0-6.72-1.25-9.34-3.76-5.38-5.17-5.56-13.71-.4-19.09l9.44-9.84H67.51c-7.46,0-13.5-6.04-13.5-13.5s6.04-13.5,13.5-13.5h68.61l-10.05-10.19c-5.23-5.31-5.17-13.86,.14-19.09s13.85-5.18,19.09,.13l32.71,33.17c5.13,5.21,5.19,13.56,.13,18.83Z"/>
    </g>
  </g>
</svg>