<?xml version="1.0" encoding="UTF-8"?>
<svg id="Capa_2" data-name="Capa 2" xmlns="http://www.w3.org/2000/svg" viewBox="0 0 162.9 175.43">
  <g id="Capa_1-2" data-name="Capa 1">
    <path d="M139.32,24.01C124.18,8.72,103.58,.08,82.07,0h-.62C36.47,0,0,36.47,0,81.45v43.86c0,10.38,8.42,18.8,18.8,18.8h12.53c10.38,0,18.8-8.42,18.8-18.8v-31.33c0-10.38-8.42-18.8-18.8-18.8H12.81C16.32,37.23,49.94,9.31,87.89,12.82c16.09,1.49,31.14,8.57,42.54,20.02,11.32,11.37,18.28,26.36,19.67,42.35h-18.52c-10.38,0-18.8,8.42-18.8,18.8v31.33c0,10.38,8.42,18.8,18.8,18.8h18.8c0,10.38-8.42,18.8-18.8,18.8h-43.86c-3.46,0-6.27,2.81-6.27,6.27s2.81,6.27,6.27,6.27h43.86c17.3,0,31.33-14.03,31.33-31.33v-62.65c.08-21.52-8.4-42.19-23.58-57.44ZM31.33,87.72c3.46,0,6.27,2.81,6.27,6.27v31.33c0,3.46-2.81,6.27-6.27,6.27h-12.53c-3.46,0-6.27-2.81-6.27-6.27v-37.59H31.33Zm100.25,43.86c-3.46,0-6.27-2.81-6.27-6.27v-31.33c0-3.46,2.81-6.27,6.27-6.27h18.8v43.86h-18.8Z"/>
  </g>
</svg>