<?xml version="1.0" encoding="UTF-8"?>
<svg id="Capa_1" data-name="Capa 1" xmlns="http://www.w3.org/2000/svg" viewBox="0 0 4382.37 4382.37">
  <path d="M2190.87,1185.9c-555.03,0-1004.98,449.94-1004.98,1004.98s449.94,1004.98,1004.98,1004.98,1004.98-449.94,1004.98-1004.98c-.58-554.79-450.18-1004.4-1004.98-1004.98Zm0,1674.96c-370.02,0-669.98-299.96-669.98-669.98s299.96-669.98,669.98-669.98,669.98,299.96,669.98,669.98-299.96,669.98-669.98,669.98Zm1842.45-624.76c.84-30.15,.84-60.3,0-90.45l312.38-390.27c33.22-41.55,44.72-96.42,30.99-147.82-51.21-192.49-127.81-377.32-227.79-549.6-26.54-45.71-73.11-76.21-125.62-82.28l-496.63-55.27c-20.66-21.77-41.6-42.71-62.81-62.81l-58.62-497.88c-6.11-52.55-36.7-99.13-82.49-125.62-172.35-99.8-357.15-176.32-549.6-227.59-51.43-13.67-106.3-2.09-147.82,31.2l-389.22,310.7h-90.45L1755.38,36.66c-41.55-33.22-96.42-44.72-147.82-30.99-192.46,51.3-377.27,127.9-549.6,227.79-45.71,26.54-76.21,73.11-82.28,125.62l-55.27,497.46c-21.77,20.8-42.71,41.73-62.81,62.81l-497.88,57.16c-52.55,6.11-99.13,36.7-125.62,82.49C134.3,1231.36,57.78,1416.17,6.51,1608.61c-13.67,51.43-2.09,106.3,31.2,147.82l310.7,389.22v90.45L36.66,2626.36c-33.22,41.55-44.72,96.42-30.99,147.82,51.21,192.49,127.81,377.32,227.79,549.6,26.54,45.71,73.11,76.21,125.62,82.28l496.63,55.27c20.8,21.77,41.73,42.71,62.81,62.81l58,497.88c6.11,52.55,36.7,99.13,82.49,125.62,172.35,99.8,357.15,176.32,549.6,227.58,51.43,13.67,106.3,2.09,147.82-31.2l389.22-310.7c30.15,.84,60.3,.84,90.45,0l390.27,312.38c41.55,33.22,96.42,44.72,147.82,30.99,192.49-51.21,377.32-127.81,549.6-227.79,45.71-26.54,76.21-73.11,82.28-125.62l55.27-496.63c21.77-20.66,42.71-41.6,62.81-62.81l497.88-58.62c52.55-6.11,99.13-36.7,125.62-82.49,99.8-172.35,176.32-357.15,227.58-549.6,13.67-51.43,2.09-106.3-31.2-147.82l-310.7-389.22Zm-337.09-136.09c3.56,60.53,3.56,121.21,0,181.73-2.49,41.44,10.49,82.33,36.43,114.73l297.1,371.21c-34.09,108.34-77.74,213.44-130.44,314.05l-473.18,53.6c-41.21,4.57-79.25,24.27-106.78,55.27-40.3,45.33-83.23,88.25-128.55,128.55-31,27.53-50.7,65.57-55.27,106.78l-52.55,472.76c-100.6,52.72-205.7,96.37-314.05,130.44l-371.42-297.1c-29.72-23.75-66.64-36.67-104.68-36.64h-10.05c-60.53,3.56-121.21,3.56-181.73,0-41.44-2.49-82.33,10.49-114.73,36.43l-372.26,297.31c-108.34-34.09-213.44-77.74-314.05-130.44l-53.6-472.55c-4.57-41.21-24.27-79.25-55.27-106.78-45.33-40.3-88.25-83.23-128.55-128.55-27.53-31-65.57-50.7-106.78-55.27l-472.76-52.76c-52.72-100.6-96.37-205.7-130.44-314.05l297.1-371.42c25.94-32.41,38.92-73.3,36.43-114.73-3.56-60.53-3.56-121.21,0-181.73,2.49-41.44-10.49-82.33-36.43-114.73l-297.1-372.05c34.09-108.34,77.74-213.44,130.44-314.05l472.55-53.6c41.21-4.57,79.25-24.27,106.78-55.27,40.3-45.33,83.23-88.25,128.55-128.55,31.13-27.54,50.9-65.68,55.48-106.99l52.55-472.55c100.6-52.72,205.7-96.37,314.05-130.44l371.42,297.1c32.41,25.94,73.3,38.92,114.73,36.43,60.53-3.56,121.21-3.56,181.73,0,41.44,2.49,82.33-10.49,114.73-36.43l372.05-297.1c108.34,34.09,213.44,77.74,314.05,130.44l53.6,472.55c4.57,41.21,24.27,79.25,55.27,106.78,45.33,40.3,88.25,83.23,128.55,128.55,27.53,31.01,65.57,50.7,106.78,55.27l472.76,52.55c52.72,100.6,96.37,205.7,130.44,314.05l-297.1,371.42c-26.19,32.68-39.19,73.99-36.43,115.78h.63Z"/>
</svg>
