<?xml version="1.0" encoding="UTF-8"?>
<svg id="Capa_2" data-name="Capa 2" xmlns="http://www.w3.org/2000/svg" viewBox="0 0 204.99 204.99">
  <g id="Capa_1-2" data-name="Capa 1">
    <path d="M95.66,27.33V6.83c0-3.77,3.06-6.83,6.83-6.83s6.83,3.06,6.83,6.83V27.33c0,3.77-3.06,6.83-6.83,6.83s-6.83-3.06-6.83-6.83Zm61.5,75.16c0,30.19-24.47,54.66-54.66,54.66s-54.66-24.47-54.66-54.66,24.47-54.66,54.66-54.66c30.18,.03,54.63,24.49,54.66,54.66Zm-13.67,0c0-22.64-18.36-41-41-41s-41,18.36-41,41,18.36,41,41,41c22.63-.02,40.98-18.37,41-41ZM43,52.67c2.67,2.67,7,2.67,9.67,0s2.67-7,0-9.67l-13.67-13.67c-2.67-2.67-7-2.67-9.67,0-2.67,2.67-2.67,7,0,9.67l13.67,13.67Zm0,99.66l-13.67,13.67c-2.67,2.67-2.67,7,0,9.67,2.67,2.67,7,2.67,9.67,0l13.67-13.67c2.67-2.67,2.67-7,0-9.67-2.67-2.67-7-2.67-9.67,0ZM157.16,54.66c1.81,0,3.55-.72,4.83-2l13.67-13.67c2.67-2.67,2.67-7,0-9.67-2.67-2.67-7-2.67-9.67,0l-13.67,13.67c-2.67,2.67-2.67,6.99,0,9.66,1.28,1.28,3.02,2.01,4.84,2Zm4.83,97.66c-2.67-2.67-7-2.67-9.67,0-2.67,2.67-2.67,7,0,9.67l13.67,13.67c2.67,2.67,7,2.67,9.67,0s2.67-7,0-9.67l-13.67-13.67ZM34.17,102.5c0-3.77-3.06-6.83-6.83-6.83H6.83c-3.77,0-6.83,3.06-6.83,6.83s3.06,6.83,6.83,6.83H27.33c3.77,0,6.83-3.06,6.83-6.83Zm68.33,68.33c-3.77,0-6.83,3.06-6.83,6.83v20.5c0,3.77,3.06,6.83,6.83,6.83s6.83-3.06,6.83-6.83v-20.5c0-3.77-3.06-6.83-6.83-6.83Zm95.66-75.16h-20.5c-3.77,0-6.83,3.06-6.83,6.83s3.06,6.83,6.83,6.83h20.5c3.77,0,6.83-3.06,6.83-6.83s-3.06-6.83-6.83-6.83Z"/>
  </g>
</svg>