<?xml version="1.0" encoding="UTF-8"?>
<svg id="Capa_1" data-name="Capa 1" xmlns="http://www.w3.org/2000/svg" viewBox="0 0 3422.62 3299.35">
  <path d="M3410.41,1241.83c-30.26-93.25-113.31-159.4-210.96-168.04l-907.25-78.21L1936.57,149.89h0c-51.82-124.19-194.5-182.86-318.69-131.04-59.23,24.72-106.32,71.8-131.04,131.04l-354.56,845.69-908.32,78.67C89.45,1085.55-10.43,1203.76,.87,1338.28c5.36,63.74,35.49,122.84,83.93,164.62l689.11,602.18-206.53,894.26c-30.68,131.46,51.02,262.89,182.48,293.57,61.99,14.47,127.18,4.18,181.71-28.68l779.08-473.56,780.76,473.56c115.62,69.68,265.82,32.43,335.5-83.18,32.86-54.52,43.15-119.71,28.68-181.71l-206.38-895.18,688.95-601.27c74.52-64.5,103.01-167.44,72.26-261.07Zm-232.5,76.38l-688.95,601.27c-68.33,59.44-98.2,151.79-77.6,239.99l206.99,895.79h0l-780.15-473.56c-77.59-47.25-175.07-47.25-252.67,0l-779.08,473.56h0l205.62-895.18c20.59-88.2-9.27-180.55-77.6-239.99L245.2,1319.13c-.06-.46-.06-.92,0-1.37l908.01-78.52c90.35-7.96,168.86-65.3,203.94-148.94L1711.71,245.67l354.41,844.62c35.08,83.64,113.59,140.98,203.94,148.94l908.17,78.52v1.07l-.31-.61Z"/>
</svg>
