<?xml version="1.0" encoding="UTF-8"?>
<svg id="Capa_2" data-name="Capa 2" xmlns="http://www.w3.org/2000/svg" viewBox="0 0 266.81 266.81">
  <defs>
    <style>
      .cls-1 {
        fill: #fff;
      }
    </style>
  </defs>
  <g id="Capa_1-2" data-name="Capa 1">
    <path class="cls-1" d="M133.4,266.81C59.84,266.81,0,206.96,0,133.4S59.84,0,133.4,0s133.41,59.84,133.41,133.4-59.85,133.4-133.41,133.4Zm0-246.81c-62.53,0-113.4,50.87-113.4,113.4s50.87,113.4,113.4,113.4,113.41-50.87,113.41-113.4S195.94,20,133.4,20Z"/>
    <path class="cls-1" d="M132.99,133.5c-22.03,0-39.95-17.92-39.95-39.95s17.92-39.95,39.95-39.95,39.95,17.92,39.95,39.95-17.92,39.95-39.95,39.95Zm0-59.9c-11,0-19.95,8.95-19.95,19.95s8.95,19.95,19.95,19.95,19.95-8.95,19.95-19.95-8.95-19.95-19.95-19.95Z"/>
    <path class="cls-1" d="M132.49,220.87c-30.18,0-54.03-14.56-59.22-25.06-.25-.5-4.16-8.55-4.16-8.55l-.31-.65-.22-.68c-2.37-7.43-2.68-15.31-.93-23.43,1.91-8.86,9.88-15.29,18.93-15.29h93.58c9.1,0,17.08,6.48,18.96,15.41,1.78,8.43,1.34,16.52-1.29,24.03l-.04,.1c-.12,.34-1.25,3.42-2.77,6.18-6.08,11.03-28.63,26.97-59.74,27.9-.93,.03-1.87,.04-2.79,.04Zm-41.36-34.05c2.13,3.15,18.64,14.75,43.55,14.01,24-.71,40.14-12.69,42.82-17.56,.63-1.14,1.26-2.72,1.47-3.29,1.34-3.87,1.57-8.17,.67-12.77H87.09c-.85,4.24-.73,8.28,.34,12.02,.89,1.84,3.25,6.69,3.7,7.6Zm89.03-19.62h0Z"/>
  </g>
</svg>